# xmcd
#
# Track frame offsets:
#   150
#   15652
#   34560
#   53335
#   71192
#   86252
#   106705
#   127105
#   142867
#   160727
#
# Disc length: 2475 seconds
#
# Revision: 0
# Processed by: cddbd v1.5.1PL0 Copyright (c) Steve Scherf et al.
# Submitted via: CD-Datenbank 4.*
#
DISCID=7109a90a
DTITLE=Geoffrey Williams - Prisoner Of Love
DYEAR=1989
DGENRE=R and B
TTITLE0=Lipstick
TTITLE1=Blue
TTITLE2=Back In Circulation
TTITLE3=Shake
TTITLE4=Wrapped Around Your Finger
TTITLE5=Never Let Her Go
TTITLE6=Prisoner Of Love
TTITLE7=Sugar Fly
TTITLE8=Walk Like A Man
TTITLE9=The World Is Full Of Other People
EXTD=
EXTT0=
EXTT1=
EXTT2=
EXTT3=
EXTT4=
EXTT5=
EXTT6=
EXTT7=
EXTT8=
EXTT9=
PLAYORDER=
